Coordinates
version=1
nRows=14
nColumns=33
inDegrees=yes

Units are S.I. units (second, meters, Newtons, ...)
Angles are in degrees.

endheader
time	ground_thorax_rot_x	ground_thorax_rot_y	ground_thorax_rot_z	ground_thorax_tx	ground_thorax_ty	ground_thorax_tz	clav_prot_r	clav_elev_r	scapula_abduction_r	scapula_elevation_r	scapula_upward_rot_r	scapula_winging_r	shoulder_elv_r	plane_of_elev_r	axial_rot_r	elbow_flexion_r	pro_sup_r	wrist_flex_r	wrist_dev_r	clav_prot_l	clav_elev_l	scapula_abduction_l	scapula_elevation_l	scapula_upward_rot_l	scapula_winging_l	shoulder_elv_l	plane_of_elev_l	axial_rot_l	elbow_flexion_l	pro_sup_l	wrist_flex_l	wrist_dev_l	
10.8100	-37.919030	-6.285340	15.297562	-181.548809	824.029659	5.299380	4.829058	-45.000000	40.830554	-45.000000	-20.398323	-1540.552585	-2629.857322	147.517789	-116.159148	1091.491887	14.488206	19.044786	9.321160	16.799992	38.671168	-40.712001	-45.000000	-42.559249	2243.818954	-4247.484063	25.762089	-29.244654	730.031917	3.749095	8.108535	-20.214914	
10.8200	-37.944433	-6.223676	15.223562	-184.097857	825.717492	5.402928	4.888288	-45.000000	40.734968	-45.000000	-20.769934	-1540.658074	-2629.641011	147.455447	-116.186148	1091.481487	13.496261	19.043885	9.328823	16.715317	38.593065	-40.634467	-45.000000	-42.760779	2243.986888	-4247.378064	25.667615	-29.675320	730.056690	3.022850	8.104741	-20.229439	
10.8300	-37.972524	-6.161774	15.148045	-186.607362	827.371831	5.497085	4.941760	-45.000000	40.643014	-45.000000	-21.136522	-1540.761837	-2629.435920	147.401524	-116.220890	1091.473313	12.559153	19.044405	9.332483	16.629856	38.525674	-40.554093	-45.000000	-42.948301	2244.156414	-4247.279013	25.570768	-30.132159	730.083398	2.342441	8.092039	-20.240902	
10.8400	-38.000625	-6.102926	15.076706	-189.075953	828.987472	5.582353	4.992878	-45.000000	40.548893	-45.000000	-21.520725	-1540.863311	-2629.235042	147.352577	-116.259908	1091.472295	11.673774	19.048598	9.322629	16.545855	38.459002	-40.470748	-45.000000	-43.154327	2244.315330	-4247.173909	25.474351	-30.565214	730.113048	1.694725	8.083680	-20.246858	
10.8500	-38.029949	-6.041977	15.006951	-191.501986	830.559502	5.659515	5.041987	-45.000000	40.460430	-45.000000	-21.904406	-1540.968528	-2629.041645	147.311242	-116.293541	1091.472714	10.851067	19.053846	9.313503	16.463162	38.398879	-40.387409	-45.000000	-43.342436	2244.481770	-4247.083562	25.382179	-31.030780	730.140609	1.093021	8.054814	-20.249828	
10.8600	-38.057666	-5.981540	14.941395	-193.883724	832.083616	5.729528	5.093544	-45.000000	40.373648	-45.000000	-22.305945	-1541.077355	-2628.850855	147.271116	-116.315809	1091.477503	10.087731	19.061824	9.297163	16.385011	38.336028	-40.304090	-45.000000	-43.535645	2244.644716	-4247.000573	25.295273	-31.492441	730.166157	0.534485	8.010002	-20.248041	
10.8700	-38.084703	-5.921253	14.877085	-196.219174	833.555998	5.793396	5.151719	-45.000000	40.291827	-45.000000	-22.707618	-1541.194240	-2628.674444	147.229834	-116.316318	1091.479126	9.395633	19.069500	9.283671	16.313508	38.270635	-40.223594	-45.000000	-43.708938	2244.818804	-4246.942529	25.215407	-31.994236	730.184527	0.037782	7.922162	-20.243604	
10.8800	-38.107151	-5.868820	14.819729	-198.506539	834.973543	5.852162	5.215496	-45.000000	40.196730	-45.000000	-23.147876	-1541.305270	-2628.504433	147.182150	-116.303606	1091.485421	8.749699	19.079890	9.238917	16.245748	38.190612	-40.140498	-45.000000	-43.929766	2244.962969	-4246.864374	25.134169	-32.412828	730.204115	-0.416863	7.846876	-20.233581	
10.8900	-38.128438	-5.815437	14.767766	-200.744393	836.333705	5.906831	5.283151	-45.000000	40.104229	-45.000000	-23.591358	-1541.420957	-2628.347803	147.139777	-116.270493	1091.487828	8.162518	19.089634	9.188658	16.181537	38.110905	-40.059646	-45.000000	-44.144433	2245.106084	-4246.795304	25.059472	-32.837949	730.221865	-0.804960	7.747430	-20.222466	
10.9000	-38.146706	-5.764219	14.719364	-202.931979	837.634535	5.958361	5.348293	-45.000000	40.007602	-45.000000	-24.052545	-1541.530109	-2628.196741	147.101272	-116.227362	1091.491279	7.622746	19.100338	9.117348	16.117447	38.032530	-39.974668	-45.000000	-44.369741	2245.230519	-4246.717868	24.985744	-33.220954	730.241048	-1.131455	7.654423	-20.210026	
10.9100	-38.164919	-5.714413	14.670582	-205.069396	838.874586	6.007599	5.411939	-45.000000	39.916448	-45.000000	-24.506660	-1541.640472	-2628.058420	147.068980	-116.168023	1091.492859	7.146232	19.110303	9.045543	16.055581	37.961843	-39.887467	-45.000000	-44.565093	2245.361773	-4246.659442	24.919065	-33.628484	730.256243	-1.377197	7.534518	-20.199243	
10.9200	-38.181992	-5.668329	14.616263	-207.157617	840.052914	6.055285	5.467108	-45.000000	39.822893	-45.000000	-24.963948	-1541.742131	-2627.925914	147.040783	-116.107739	1091.502331	6.727469	19.122942	8.954539	15.990549	37.901341	-39.790500	-45.000000	-44.743917	2245.478864	-4246.598769	24.847575	-34.002397	730.273337	-1.548066	7.424836	-20.188946	
10.9300	-38.200895	-5.623215	14.554769	-209.198297	841.168942	6.102056	5.515540	-45.000000	39.735605	-45.000000	-25.400848	-1541.843965	-2627.805579	147.020449	-116.040363	1091.515015	6.387707	19.135989	8.863065	15.922024	37.856546	-39.688768	-45.000000	-44.863952	2245.607417	-4246.562052	24.776071	-34.416644	730.288712	-1.626366	7.293760	-20.182444	
10.9400	-38.217110	-5.582073	14.484080	-211.193410	842.222418	6.148546	5.551071	-45.000000	39.658686	-45.000000	-25.815401	-1541.941185	-2627.687525	147.009866	-115.975841	1091.538501	6.135450	19.151744	8.768505	15.847244	37.833064	-39.580143	-45.000000	-44.931526	2245.741845	-4246.550218	24.701239	-34.867982	730.303403	-1.611078	7.153200	-20.179441	
